<svg width="16" height="20" viewBox="0 0 16 20" fill="none" xmlns="http://www.w3.org/2000/svg">
<path d="M4.01613 1.29875C4.06613 0.587322 4.47648 0.21875 5.24648 0.21875H10.5786C11.3486 0.21875 11.7504 0.587322 11.8008 1.29875H4.01613ZM2.53434 3.61732C2.66006 2.85554 3.02006 2.43696 3.85684 2.43696H11.9011C12.7383 2.43696 13.0979 2.85554 13.2236 3.61732H2.53434ZM3.21256 19.7809C1.47148 19.7809 0.583984 18.9188 0.583984 17.1859V7.54304C0.583984 5.81875 1.47148 4.94839 3.21256 4.94839H12.7883C14.5379 4.94839 15.4168 5.81875 15.4168 7.54304V17.1859C15.4168 18.9102 14.5461 19.7809 13.0393 19.7809H3.21256ZM10.3004 10.9409C10.6643 10.8423 10.7779 10.7666 10.7779 10.327V8.84161C10.7779 8.55375 10.6793 8.42482 10.2779 8.52339L8.0572 9.07661C7.68577 9.16768 7.60256 9.24339 7.60256 9.69054V13.1084C7.60256 13.442 7.5722 13.5027 7.19327 13.6084L6.49613 13.7905C5.80648 13.9727 5.22291 14.3816 5.22291 15.1245C5.22291 15.7684 5.70791 16.2384 6.47327 16.2384C7.5572 16.2384 8.2922 15.4577 8.2922 14.3588V11.7595C8.2922 11.4791 8.35291 11.4034 8.5272 11.3652L10.3004 10.9409Z" fill="#261551"/>
</svg>
