<svg width="18" height="18" viewBox="0 0 18 18" fill="none" xmlns="http://www.w3.org/2000/svg">
<path d="M2.83366 0.666504C2.25902 0.666504 1.70792 0.894777 1.30159 1.30111C0.895265 1.70743 0.666992 2.25853 0.666992 2.83317V5.99984C0.666992 6.57447 0.895265 7.12557 1.30159 7.5319C1.70792 7.93823 2.25902 8.1665 2.83366 8.1665H6.00033C6.57496 8.1665 7.12606 7.93823 7.53239 7.5319C7.93872 7.12557 8.16699 6.57447 8.16699 5.99984V2.83317C8.16699 2.25853 7.93872 1.70743 7.53239 1.30111C7.12606 0.894777 6.57496 0.666504 6.00033 0.666504H2.83366ZM12.0003 0.666504C11.4257 0.666504 10.8746 0.894777 10.4683 1.30111C10.0619 1.70743 9.83366 2.25853 9.83366 2.83317V5.99984C9.83366 6.57447 10.0619 7.12557 10.4683 7.5319C10.8746 7.93823 11.4257 8.1665 12.0003 8.1665H15.167C15.7416 8.1665 16.2927 7.93823 16.6991 7.5319C17.1054 7.12557 17.3337 6.57447 17.3337 5.99984V2.83317C17.3337 2.25853 17.1054 1.70743 16.6991 1.30111C16.2927 0.894777 15.7416 0.666504 15.167 0.666504H12.0003ZM2.83366 9.83317C2.25902 9.83317 1.70792 10.0614 1.30159 10.4678C0.895265 10.8741 0.666992 11.4252 0.666992 11.9998V15.1665C0.666992 15.7411 0.895265 16.2922 1.30159 16.6986C1.70792 17.1049 2.25902 17.3332 2.83366 17.3332H6.00033C6.57496 17.3332 7.12606 17.1049 7.53239 16.6986C7.93872 16.2922 8.16699 15.7411 8.16699 15.1665V11.9998C8.16699 11.4252 7.93872 10.8741 7.53239 10.4678C7.12606 10.0614 6.57496 9.83317 6.00033 9.83317H2.83366ZM12.0003 9.83317C11.4257 9.83317 10.8746 10.0614 10.4683 10.4678C10.0619 10.8741 9.83366 11.4252 9.83366 11.9998V15.1665C9.83366 15.7411 10.0619 16.2922 10.4683 16.6986C10.8746 17.1049 11.4257 17.3332 12.0003 17.3332H15.167C15.7416 17.3332 16.2927 17.1049 16.6991 16.6986C17.1054 16.2922 17.3337 15.7411 17.3337 15.1665V11.9998C17.3337 11.4252 17.1054 10.8741 16.6991 10.4678C16.2927 10.0614 15.7416 9.83317 15.167 9.83317H12.0003Z" fill="#261551"/>
</svg>
