<svg width="26" height="24" viewBox="0 0 26 24" fill="none" xmlns="http://www.w3.org/2000/svg">
<path d="M24.1304 24C23.8569 24 23.5946 23.8946 23.4012 23.7071C23.2078 23.5196 23.0992 23.2652 23.0992 23V1C23.0992 0.734784 23.2078 0.480429 23.4012 0.292893C23.5946 0.105357 23.8569 0 24.1304 0C24.4039 0 24.6662 0.105357 24.8596 0.292893C25.053 0.480429 25.1617 0.734784 25.1617 1V23C25.1635 23.1318 25.1381 23.2627 25.0869 23.3848C25.0358 23.5069 24.9599 23.6179 24.8637 23.7111C24.7676 23.8043 24.6532 23.8779 24.5272 23.9275C24.4013 23.9772 24.2664 24.0018 24.1304 24ZM19.4554 11.2147C19.4678 11.6793 19.3686 12.1404 19.1658 12.5615C18.963 12.9826 18.662 13.3523 18.2867 13.6413L5.76042 23.0947C5.31217 23.424 4.78004 23.628 4.22042 23.6813H3.90417C3.42811 23.6929 2.95627 23.5922 2.52917 23.388C2.02062 23.1473 1.59188 22.7732 1.29167 22.308C0.992747 21.8444 0.835421 21.3081 0.83792 20.7613V3.228C0.839405 2.70217 0.986625 2.1864 1.26417 1.73467C1.5502 1.2856 1.95335 0.917666 2.43292 0.668C2.91061 0.417614 3.44948 0.297762 3.99195 0.321246C4.53443 0.34473 5.06013 0.510667 5.51292 0.801333L18.0529 8.908C18.4517 9.16267 18.7817 9.50533 19.0154 9.908C19.2622 10.3057 19.4126 10.7524 19.4554 11.2147Z" fill="#261551"/>
</svg>
