<svg width="25" height="24" viewBox="0 0 25 24" fill="none" xmlns="http://www.w3.org/2000/svg">
<path d="M1.70627 0.375C1.97149 0.375 2.22584 0.477064 2.41338 0.658741C2.60091 0.840416 2.70627 1.08682 2.70627 1.34375L2.70627 22.6562C2.70627 22.9132 2.60091 23.1596 2.41338 23.3413C2.22584 23.5229 1.97149 23.625 1.70627 23.625C1.44106 23.625 1.1867 23.5229 0.999165 23.3413C0.811628 23.1596 0.706272 22.9132 0.706272 22.6563L0.706272 1.34375C0.704479 1.21605 0.72912 1.0893 0.77874 0.97098C0.82836 0.852661 0.901949 0.745174 0.995167 0.654869C1.08839 0.564564 1.19934 0.493271 1.32148 0.445202C1.44361 0.397133 1.57446 0.373262 1.70627 0.375ZM6.23961 12.7608C6.22762 12.3107 6.32376 11.864 6.52044 11.4561C6.71712 11.0481 7.00896 10.69 7.37294 10.41L19.5196 1.25204C19.9543 0.933002 20.4703 0.735376 21.0129 0.68371H21.3196C21.7812 0.672516 22.2388 0.770029 22.6529 0.967875C23.1461 1.20103 23.5618 1.56351 23.8529 2.01412C24.1428 2.46326 24.2954 2.98277 24.2929 3.51246V20.4979C24.2915 21.0073 24.1487 21.5069 23.8796 21.9445C23.6022 22.3796 23.2113 22.736 22.7463 22.9779C22.2831 23.2204 21.7605 23.3365 21.2345 23.3138C20.7084 23.291 20.1987 23.1303 19.7596 22.8487L7.59961 14.9954C7.21294 14.7487 6.89294 14.4167 6.66627 14.0266C6.42701 13.6414 6.28113 13.2086 6.23961 12.7608Z" fill="#261551"/>
</svg>
