<svg width="17" height="14" viewBox="0 0 17 14" fill="none" xmlns="http://www.w3.org/2000/svg">
<path d="M12.5833 13.6668C12 13.6668 11.5069 13.4654 11.1042 13.0627C10.7014 12.6599 10.5 12.1668 10.5 11.5835C10.5 11.0002 10.7014 10.5071 11.1042 10.1043C11.5069 9.70155 12 9.50016 12.5833 9.50016C12.6944 9.50016 12.8194 9.51072 12.9583 9.53183C13.0972 9.55294 13.25 9.59794 13.4167 9.66683V6.16683C13.4167 5.93072 13.4967 5.73294 13.6567 5.5735C13.8167 5.41405 14.0144 5.33405 14.25 5.3335H15.5C15.7361 5.3335 15.9342 5.4135 16.0942 5.5735C16.2542 5.7335 16.3339 5.93127 16.3333 6.16683C16.3328 6.40238 16.2528 6.60044 16.0933 6.761C15.9339 6.92155 15.7361 7.00127 15.5 7.00016H14.6667V11.5835C14.6667 12.1668 14.4653 12.6599 14.0625 13.0627C13.6597 13.4654 13.1667 13.6668 12.5833 13.6668ZM7.16667 7.00016C6.25 7.00016 5.46528 6.67377 4.8125 6.021C4.15972 5.36822 3.83333 4.5835 3.83333 3.66683C3.83333 2.75016 4.15972 1.96544 4.8125 1.31266C5.46528 0.659885 6.25 0.333496 7.16667 0.333496C8.08333 0.333496 8.86806 0.659885 9.52083 1.31266C10.1736 1.96544 10.5 2.75016 10.5 3.66683C10.5 4.5835 10.1736 5.36822 9.52083 6.021C8.86806 6.67377 8.08333 7.00016 7.16667 7.00016ZM1.33333 13.6668C1.09722 13.6668 0.899445 13.5868 0.74 13.4268C0.580556 13.2668 0.500556 13.0691 0.5 12.8335V11.3335C0.5 10.8474 0.621667 10.4099 0.865 10.021C1.10833 9.63211 1.43111 9.3335 1.83333 9.12516C2.69444 8.69461 3.56944 8.37183 4.45833 8.15683C5.34722 7.94183 6.25 7.83405 7.16667 7.8335C7.55556 7.8335 7.94111 7.85433 8.32333 7.896C8.70556 7.93766 9.09083 8.00016 9.47917 8.0835C9.71528 8.13905 9.86444 8.28488 9.92667 8.521C9.98889 8.75711 9.92306 8.97239 9.72917 9.16683C9.4375 9.51405 9.21861 9.89266 9.0725 10.3027C8.92639 10.7127 8.85361 11.1396 8.85417 11.5835C8.85417 11.7641 8.86472 11.9413 8.88583 12.1152C8.90694 12.2891 8.945 12.466 9 12.646C9.06944 12.896 9.03833 13.1288 8.90667 13.3443C8.775 13.5599 8.59083 13.6674 8.35417 13.6668H1.33333Z" fill="#261551"/>
</svg>
