<svg width="18" height="18" viewBox="0 0 18 18" fill="none" xmlns="http://www.w3.org/2000/svg">
<path opacity="0.16" fill-rule="evenodd" clip-rule="evenodd" d="M9 16.5C9.98491 16.5 10.9602 16.306 11.8701 15.9291C12.7801 15.5522 13.6069 14.9997 14.3033 14.3033C14.9997 13.6069 15.5522 12.7801 15.9291 11.8701C16.306 10.9602 16.5 9.98491 16.5 9C16.5 8.01509 16.306 7.03982 15.9291 6.12987C15.5522 5.21993 14.9997 4.39314 14.3033 3.6967C13.6069 3.00026 12.7801 2.44781 11.8701 2.0709C10.9602 1.69399 9.98491 1.5 9 1.5C7.01088 1.5 5.10322 2.29018 3.6967 3.6967C2.29018 5.10322 1.5 7.01088 1.5 9C1.5 10.9891 2.29018 12.8968 3.6967 14.3033C5.10322 15.7098 7.01088 16.5 9 16.5ZM11.5 6.5L8.4225 7.11583C8.10009 7.18045 7.804 7.33898 7.57149 7.57149C7.33898 7.804 7.18045 8.10009 7.11583 8.4225L6.5 11.5L9.5775 10.8842C9.90006 10.8197 10.1963 10.6612 10.429 10.4287C10.6617 10.1962 10.8203 9.90002 10.885 9.5775L11.5 6.5Z" fill="#7653FF"/>
<path d="M9 16.5C13.1421 16.5 16.5 13.1421 16.5 9C16.5 4.85786 13.1421 1.5 9 1.5C4.85786 1.5 1.5 4.85786 1.5 9C1.5 13.1421 4.85786 16.5 9 16.5Z" stroke="#7653FF" stroke-width="2.66667" stroke-linecap="round" stroke-linejoin="round"/>
<path d="M8.4225 7.11583L11.5 6.5L10.8842 9.5775C10.8197 9.90006 10.6612 10.1963 10.4287 10.429C10.1962 10.6617 9.90002 10.8203 9.5775 10.885L6.5 11.5L7.11583 8.4225C7.18045 8.10009 7.33898 7.804 7.57149 7.57149C7.804 7.33898 8.10009 7.18045 8.4225 7.11583Z" stroke="#7653FF" stroke-width="2.66667" stroke-linecap="round" stroke-linejoin="round"/>
</svg>
