<svg width="22" height="22" viewBox="0 0 22 22" fill="none" xmlns="http://www.w3.org/2000/svg">
<path d="M2 6V4C2 3.46957 2.21071 2.96086 2.58579 2.58579C2.96086 2.21071 3.46957 2 4 2H6M16 2H18C18.5304 2 19.0391 2.21071 19.4142 2.58579C19.7893 2.96086 20 3.46957 20 4V6M20 16V18C20 18.5304 19.7893 19.0391 19.4142 19.4142C19.0391 19.7893 18.5304 20 18 20H16M6 20H4C3.46957 20 2.96086 19.7893 2.58579 19.4142C2.21071 19.0391 2 18.5304 2 18V16" stroke="#261551" stroke-width="2.66667" stroke-linecap="round" stroke-linejoin="round"/>
<path d="M15 7H7C6.44772 7 6 7.44772 6 8V14C6 14.5523 6.44772 15 7 15H15C15.5523 15 16 14.5523 16 14V8C16 7.44772 15.5523 7 15 7Z" stroke="#261551" stroke-width="2.66667" stroke-linecap="round" stroke-linejoin="round"/>
</svg>
