<svg width="14" height="16" viewBox="0 0 14 16" fill="none" xmlns="http://www.w3.org/2000/svg">
<path d="M0.333008 13.8332V6.33317C0.333008 6.06928 0.392174 5.81928 0.510508 5.58317C0.628841 5.34706 0.791897 5.15262 0.999675 4.99984L5.99967 1.24984C6.29134 1.02762 6.62467 0.916504 6.99967 0.916504C7.37467 0.916504 7.70801 1.02762 7.99967 1.24984L12.9997 4.99984C13.208 5.15262 13.3713 5.34706 13.4897 5.58317C13.608 5.81928 13.6669 6.06928 13.6663 6.33317V13.8332C13.6663 14.2915 13.503 14.684 13.1763 15.0107C12.8497 15.3373 12.4575 15.5004 11.9997 15.4998H9.49967C9.26356 15.4998 9.06579 15.4198 8.90634 15.2598C8.7469 15.0998 8.6669 14.9021 8.66634 14.6665V10.4998C8.66634 10.2637 8.58634 10.0659 8.42634 9.9065C8.26634 9.74706 8.06856 9.66706 7.83301 9.6665H6.16634C5.93023 9.6665 5.73245 9.7465 5.57301 9.9065C5.41356 10.0665 5.33356 10.2643 5.33301 10.4998V14.6665C5.33301 14.9026 5.25301 15.1007 5.09301 15.2607C4.93301 15.4207 4.73523 15.5004 4.49967 15.4998H1.99967C1.54134 15.4998 1.14912 15.3368 0.823008 15.0107C0.496897 14.6846 0.333563 14.2921 0.333008 13.8332Z" fill="#261551"/>
</svg>
