<svg width="17" height="4" viewBox="0 0 17 4" fill="none" xmlns="http://www.w3.org/2000/svg">
<path fill-rule="evenodd" clip-rule="evenodd" d="M1.14831 0.762563C1.47649 0.434375 1.92161 0.25 2.38574 0.25C2.84987 0.25 3.29499 0.434375 3.62318 0.762563C3.95137 1.09075 4.13574 1.53587 4.13574 2C4.13574 2.46413 3.95137 2.90925 3.62318 3.23744C3.29499 3.56562 2.84987 3.75 2.38574 3.75C1.92161 3.75 1.47649 3.56562 1.14831 3.23744C0.820117 2.90925 0.635742 2.46413 0.635742 2C0.635742 1.53587 0.820117 1.09075 1.14831 0.762563ZM7.27331 0.762563C7.60149 0.434375 8.04661 0.25 8.51074 0.25C8.97487 0.25 9.41999 0.434375 9.74818 0.762563C10.0764 1.09075 10.2607 1.53587 10.2607 2C10.2607 2.46413 10.0764 2.90925 9.74818 3.23744C9.41999 3.56562 8.97487 3.75 8.51074 3.75C8.04661 3.75 7.60149 3.56562 7.27331 3.23744C6.94512 2.90925 6.76074 2.46413 6.76074 2C6.76074 1.53587 6.94512 1.09075 7.27331 0.762563ZM13.3983 0.762563C13.7265 0.434374 14.1716 0.25 14.6357 0.25C15.0999 0.25 15.545 0.434374 15.8732 0.762563C16.2014 1.09075 16.3857 1.53587 16.3857 2C16.3857 2.46413 16.2014 2.90925 15.8732 3.23744C15.545 3.56563 15.0999 3.75 14.6357 3.75C14.1716 3.75 13.7265 3.56563 13.3983 3.23744C13.0701 2.90925 12.8857 2.46413 12.8857 2C12.8857 1.53587 13.0701 1.09075 13.3983 0.762563Z" fill="#261551"/>
</svg>
