<svg width="14" height="14" viewBox="0 0 14 14" fill="none" xmlns="http://www.w3.org/2000/svg">
<path d="M6.99967 7.00016C6.08301 7.00016 5.29829 6.67377 4.64551 6.021C3.99273 5.36822 3.66634 4.5835 3.66634 3.66683C3.66634 2.75016 3.99273 1.96544 4.64551 1.31266C5.29829 0.659885 6.08301 0.333496 6.99967 0.333496C7.91634 0.333496 8.70106 0.659885 9.35384 1.31266C10.0066 1.96544 10.333 2.75016 10.333 3.66683C10.333 4.5835 10.0066 5.36822 9.35384 6.021C8.70106 6.67377 7.91634 7.00016 6.99967 7.00016ZM0.333008 12.0002V11.3335C0.333008 10.8613 0.454675 10.4274 0.698008 10.0318C0.941341 9.63627 1.26412 9.33405 1.66634 9.12516C2.52745 8.69461 3.40245 8.37183 4.29134 8.15683C5.18023 7.94183 6.08301 7.83405 6.99967 7.8335C7.91634 7.83294 8.81912 7.94072 9.70801 8.15683C10.5969 8.37294 11.4719 8.69572 12.333 9.12516C12.7358 9.3335 13.0588 9.63572 13.3022 10.0318C13.5455 10.4279 13.6669 10.8618 13.6663 11.3335V12.0002C13.6663 12.4585 13.5033 12.851 13.1772 13.1777C12.8511 13.5043 12.4586 13.6674 11.9997 13.6668H1.99967C1.54134 13.6668 1.14912 13.5038 0.823008 13.1777C0.496897 12.8516 0.333563 12.4591 0.333008 12.0002Z" fill="#261551"/>
</svg>
