<svg width="20" height="20" viewBox="0 0 20 20" fill="none" xmlns="http://www.w3.org/2000/svg">
<path d="M10.8337 13.7443C10.8337 15.356 12.1445 16.6668 13.7562 16.6668C15.3678 16.6668 16.6787 15.356 16.6787 13.7443C16.6787 13.5968 16.6562 13.4552 16.6345 13.3135H16.667V5.00016H18.3337V3.3335H15.8337C15.6126 3.3335 15.4007 3.42129 15.2444 3.57757C15.0881 3.73385 15.0003 3.94582 15.0003 4.16683V11.111C14.612 10.9242 14.1871 10.8257 13.7562 10.8227C12.9814 10.8233 12.2386 11.1313 11.6907 11.6791C11.1428 12.2268 10.8345 12.9696 10.8337 13.7443ZM1.66699 4.16683H13.3337V5.8335H1.66699V4.16683Z" fill="#261551"/>
<path d="M1.66699 7.5H13.3337V9.16667H1.66699V7.5ZM1.66699 10.8333H9.16699V12.5H1.66699V10.8333ZM1.66699 14.1667H9.16699V15.8333H1.66699V14.1667Z" fill="#261551"/>
</svg>
