<svg width="18" height="18" viewBox="0 0 18 18" fill="none" xmlns="http://www.w3.org/2000/svg">
<path d="M2.33366 17.3334C1.87533 17.3334 1.4831 17.1703 1.15699 16.8442C0.830881 16.5181 0.667548 16.1256 0.666992 15.6667V4.5417L11.5628 0.104196C11.7573 0.0347519 11.9484 0.038363 12.1362 0.11503C12.3239 0.191696 12.4523 0.326974 12.5212 0.520863C12.59 0.714752 12.5867 0.905863 12.5112 1.0942C12.4356 1.28253 12.3 1.41086 12.1045 1.4792L5.91699 4.00003H15.667C16.1253 4.00003 16.5178 4.16336 16.8445 4.49003C17.1712 4.8167 17.3342 5.20892 17.3337 5.6667V15.6667C17.3337 16.125 17.1706 16.5175 16.8445 16.8442C16.5184 17.1709 16.1259 17.3339 15.667 17.3334H2.33366ZM5.66699 14.8334C6.25033 14.8334 6.74338 14.632 7.14616 14.2292C7.54894 13.8264 7.75033 13.3334 7.75033 12.75C7.75033 12.1667 7.54894 11.6736 7.14616 11.2709C6.74338 10.8681 6.25033 10.6667 5.66699 10.6667C5.08366 10.6667 4.5906 10.8681 4.18783 11.2709C3.78505 11.6736 3.58366 12.1667 3.58366 12.75C3.58366 13.3334 3.78505 13.8264 4.18783 14.2292C4.5906 14.632 5.08366 14.8334 5.66699 14.8334ZM2.33366 8.1667H12.3337V7.33336C12.3337 7.09725 12.4137 6.89947 12.5737 6.74003C12.7337 6.58059 12.9314 6.50059 13.167 6.50003C13.4025 6.49947 13.6006 6.57947 13.7612 6.74003C13.9217 6.90059 14.0014 7.09836 14.0003 7.33336V8.1667H15.667V5.6667H2.33366V8.1667Z" fill="#261551"/>
</svg>
