<svg width="21" height="18" viewBox="0 0 21 18" fill="none" xmlns="http://www.w3.org/2000/svg">
<path d="M7.93389 5.05125C7.48759 5.74125 6.97806 6.765 6.4053 8.1225C6.24166 7.785 6.10405 7.51313 5.99247 7.30688C5.88089 7.10063 5.73027 6.8625 5.54059 6.5925C5.35091 6.3225 5.16123 6.11063 4.97155 5.95688C4.78187 5.80313 4.54756 5.67188 4.26862 5.56313C3.98968 5.45438 3.68657 5.4 3.35928 5.4H0.859973C0.755835 5.4 0.670294 5.36625 0.603348 5.29875C0.536402 5.23125 0.50293 5.145 0.50293 5.04V2.88C0.50293 2.775 0.536402 2.68875 0.603348 2.62125C0.670294 2.55375 0.755835 2.52 0.859973 2.52H3.35928C5.21888 2.52 6.74375 3.36375 7.93389 5.05125ZM20.4974 14.04C20.4974 14.145 20.4639 14.2313 20.3969 14.2988L16.8265 17.8988C16.7596 17.9663 16.674 18 16.5699 18C16.4732 18 16.3895 17.9644 16.3188 17.8931C16.2482 17.8219 16.2128 17.7375 16.2128 17.64V15.48C15.9748 15.48 15.6587 15.4819 15.2644 15.4856C14.8702 15.4894 14.5689 15.4931 14.3607 15.4969C14.1524 15.5006 13.8809 15.4969 13.5462 15.4856C13.2114 15.4744 12.9474 15.4556 12.754 15.4294C12.5606 15.4031 12.3225 15.3638 12.0399 15.3113C11.7572 15.2588 11.5229 15.1894 11.337 15.1031C11.151 15.0169 10.9353 14.91 10.6898 14.7825C10.4444 14.655 10.2249 14.505 10.0315 14.3325C9.83812 14.16 9.63357 13.9594 9.41785 13.7306C9.20214 13.5019 8.99386 13.2413 8.79303 12.9488C9.23189 12.2513 9.7377 11.2275 10.3105 9.8775C10.4741 10.215 10.6117 10.4869 10.7233 10.6931C10.8349 10.8994 10.9855 11.1375 11.1752 11.4075C11.3649 11.6775 11.5545 11.8894 11.7442 12.0431C11.9339 12.1969 12.1682 12.3281 12.4471 12.4369C12.7261 12.5456 13.0292 12.6 13.3565 12.6H16.2128V10.44C16.2128 10.335 16.2463 10.2488 16.3133 10.1813C16.3802 10.1138 16.4657 10.08 16.5699 10.08C16.6591 10.08 16.7484 10.1175 16.8377 10.1925L20.3969 13.7813C20.4639 13.8488 20.4974 13.935 20.4974 14.04ZM20.4974 3.96C20.4974 4.065 20.4639 4.15125 20.3969 4.21875L16.8265 7.81875C16.7596 7.88625 16.674 7.92 16.5699 7.92C16.4732 7.92 16.3895 7.88438 16.3188 7.81313C16.2482 7.74188 16.2128 7.6575 16.2128 7.56V5.4H13.3565C12.9994 5.4 12.6759 5.45625 12.3858 5.56875C12.0957 5.68125 11.8391 5.85 11.6159 6.075C11.3927 6.3 11.2031 6.53063 11.0469 6.76688C10.8907 7.00313 10.7233 7.29375 10.5448 7.63875C10.3067 8.10375 10.0166 8.745 9.67448 9.5625C9.45876 10.0575 9.27466 10.4738 9.12218 10.8113C8.96969 11.1488 8.76885 11.5425 8.51967 11.9925C8.27048 12.4425 8.03245 12.8175 7.80558 13.1175C7.57871 13.4175 7.30349 13.7288 6.97992 14.0513C6.65635 14.3738 6.32162 14.6306 5.97573 14.8219C5.62985 15.0131 5.23375 15.1706 4.78745 15.2944C4.34114 15.4181 3.86509 15.48 3.35928 15.48H0.859973C0.755835 15.48 0.670294 15.4463 0.603348 15.3788C0.536402 15.3113 0.50293 15.225 0.50293 15.12V12.96C0.50293 12.855 0.536402 12.7688 0.603348 12.7013C0.670294 12.6338 0.755835 12.6 0.859973 12.6H3.35928C3.71632 12.6 4.03989 12.5438 4.32999 12.4313C4.62008 12.3188 4.87671 12.15 5.09986 11.925C5.32301 11.7 5.51269 11.4694 5.6689 11.2331C5.82511 10.9969 5.99247 10.7063 6.17099 10.3613C6.40902 9.89625 6.69912 9.255 7.04128 8.4375C7.257 7.9425 7.4411 7.52625 7.59359 7.18875C7.74607 6.85125 7.94691 6.4575 8.1961 6.0075C8.44528 5.5575 8.68331 5.1825 8.91018 4.8825C9.13705 4.5825 9.41227 4.27125 9.73584 3.94875C10.0594 3.62625 10.3941 3.36938 10.74 3.17813C11.0859 2.98688 11.482 2.82938 11.9283 2.70563C12.3746 2.58188 12.8507 2.52 13.3565 2.52H16.2128V0.36C16.2128 0.255 16.2463 0.16875 16.3133 0.10125C16.3802 0.03375 16.4657 0 16.5699 0C16.6591 0 16.7484 0.0375 16.8377 0.1125L20.3969 3.70125C20.4639 3.76875 20.4974 3.855 20.4974 3.96Z" fill="#261551"/>
</svg>
