<svg width="13" height="13" viewBox="0 0 13 13" fill="none" xmlns="http://www.w3.org/2000/svg">
<path d="M11.5001 11.7081L8.9667 9.17471M8.9667 9.17471C9.40005 8.74136 9.74381 8.2269 9.97833 7.6607C10.2129 7.0945 10.3336 6.48765 10.3336 5.87479C10.3336 5.26194 10.2129 4.65509 9.97834 4.08889C9.74381 3.52269 9.40005 3.00823 8.9667 2.57488C8.53335 2.14153 8.01889 1.79777 7.45269 1.56325C6.88649 1.32872 6.27964 1.20801 5.66679 1.20801C5.05394 1.20801 4.44709 1.32872 3.88088 1.56325C3.31468 1.79777 2.80022 2.14153 2.36687 2.57488C1.49168 3.45007 1 4.63709 1 5.87479C1 7.1125 1.49168 8.29952 2.36687 9.17471C3.24206 10.0499 4.42908 10.5416 5.66679 10.5416C6.9045 10.5416 8.09151 10.0499 8.9667 9.17471Z" stroke="#7653FF" stroke-width="2" stroke-linecap="round" stroke-linejoin="round"/>
</svg>
