<svg width="22" height="42" viewBox="0 0 22 42" fill="none" xmlns="http://www.w3.org/2000/svg">
<path d="M18.4091 20.9998L1.42512 3.54582C1.28529 3.40516 1.17474 3.23817 1.09987 3.0545C1.025 2.87084 0.987301 2.67415 0.988949 2.47582C0.990597 2.27749 1.03156 2.08146 1.10947 1.89906C1.18738 1.71667 1.30069 1.55153 1.44284 1.41322C1.58499 1.2749 1.75315 1.16615 1.93761 1.09326C2.12207 1.02037 2.31915 0.984778 2.51745 0.988553C2.71575 0.992328 2.91134 1.03539 3.09288 1.11526C3.27443 1.19512 3.43834 1.31019 3.57512 1.45382L21.5751 19.9538C21.8476 20.2338 22 20.6091 22 20.9998C22 21.3905 21.8476 21.7658 21.5751 22.0458L3.57512 40.5458C3.43834 40.6894 3.27443 40.8045 3.09288 40.8844C2.91134 40.9642 2.71575 41.0073 2.51745 41.0111C2.31915 41.0149 2.12207 40.9793 1.93761 40.9064C1.75315 40.8335 1.58499 40.7247 1.44284 40.5864C1.30069 40.4481 1.18738 40.283 1.10947 40.1006C1.03156 39.9182 0.990597 39.7221 0.988949 39.5238C0.987301 39.3255 1.025 39.1288 1.09987 38.9451C1.17474 38.7615 1.28529 38.5945 1.42512 38.4538L18.4091 20.9998Z" fill="#261551"/>
</svg>
