<svg width="22" height="41" viewBox="0 0 22 41" fill="none" xmlns="http://www.w3.org/2000/svg">
<path d="M3.59088 20.4998L20.5749 3.04582C20.7147 2.90516 20.8253 2.73817 20.9001 2.5545C20.975 2.37084 21.0127 2.17415 21.0111 1.97582C21.0094 1.77749 20.9684 1.58146 20.8905 1.39906C20.8126 1.21667 20.6993 1.05153 20.5572 0.91322C20.415 0.774905 20.2468 0.666154 20.0624 0.59326C19.8779 0.520367 19.6808 0.484778 19.4825 0.488553C19.2842 0.492328 19.0887 0.535393 18.9071 0.615255C18.7256 0.695117 18.5617 0.81019 18.4249 0.953816L0.42488 19.4538C0.152436 19.7338 0 20.1091 0 20.4998C0 20.8905 0.152436 21.2658 0.42488 21.5458L18.4249 40.0458C18.5617 40.1894 18.7256 40.3045 18.9071 40.3844C19.0887 40.4642 19.2842 40.5073 19.4825 40.5111C19.6808 40.5149 19.8779 40.4793 20.0624 40.4064C20.2468 40.3335 20.415 40.2247 20.5572 40.0864C20.6993 39.9481 20.8126 39.783 20.8905 39.6006C20.9684 39.4182 21.0094 39.2221 21.0111 39.0238C21.0127 38.8255 20.975 38.6288 20.9001 38.4451C20.8253 38.2615 20.7147 38.0945 20.5749 37.9538L3.59088 20.4998Z" fill="#261551"/>
</svg>
