<svg width="18" height="16" viewBox="0 0 18 16" fill="none" xmlns="http://www.w3.org/2000/svg">
<path d="M15.6483 1.54267C15.7658 1.53184 15.875 1.626 15.875 1.75517V9.3135C15.3753 8.95169 14.7736 8.75766 14.1567 8.75934C12.5092 8.75934 11.1875 10.1102 11.1875 11.7593C11.1875 13.4085 12.5092 14.7593 14.1567 14.7593C15.8033 14.7593 17.125 13.4077 17.125 11.7593V1.75517C17.125 0.897669 16.3917 0.219335 15.5333 0.297669L6.8875 1.09434C6.52478 1.12821 6.18781 1.29638 5.94268 1.56587C5.69755 1.83536 5.56196 2.18671 5.5625 2.551V10.2627C5.06265 9.90115 4.46105 9.70742 3.84417 9.70933C2.19667 9.70933 0.875 11.0602 0.875 12.7093C0.875 14.3577 2.19667 15.7085 3.84417 15.7085C5.49083 15.7085 6.8125 14.3585 6.8125 12.7085V2.55184C6.8125 2.43934 6.8975 2.34934 7.0025 2.34017L15.6483 1.54267Z" fill="#261551"/>
</svg>
