<svg width="16" height="18" viewBox="0 0 16 18" fill="none" xmlns="http://www.w3.org/2000/svg">
<path d="M12.0451 0.443789C12.2136 0.668768 12.3063 0.954743 12.3063 1.25072V16.7513C12.3063 16.9898 12.2462 17.2233 12.1329 17.4242C12.0197 17.6252 11.858 17.7853 11.6671 17.8855C11.4761 17.9858 11.2638 18.0221 11.0553 17.9902C10.8467 17.9582 10.6506 17.8594 10.49 17.7052L6.10631 13.4996H2.81877C2.29211 13.4996 1.78703 13.2626 1.41462 12.8407C1.04222 12.4187 0.833008 11.8465 0.833008 11.2498V6.75022C0.833008 6.15354 1.04222 5.58129 1.41462 5.15938C1.78703 4.73746 2.29211 4.50042 2.81877 4.50042H6.10631L10.4909 0.296802C10.7142 0.082907 11.0034 -0.0217622 11.2948 0.00580006C11.5863 0.0333624 11.8561 0.190901 12.0451 0.443789ZM14.1632 5.64032C14.313 5.53704 14.4929 5.50535 14.6634 5.55222C14.8338 5.59909 14.9809 5.72069 15.0722 5.8903C15.5788 6.83022 15.833 7.88212 15.833 9.03002C15.833 10.1779 15.5788 11.2308 15.0722 12.1707C15.0282 12.2576 14.9693 12.3337 14.8989 12.3943C14.8286 12.455 14.7482 12.4991 14.6625 12.524C14.5769 12.5489 14.4877 12.5541 14.4002 12.5392C14.3128 12.5244 14.2288 12.4899 14.1533 12.4377C14.0778 12.3855 14.0124 12.3168 13.9607 12.2354C13.9091 12.1541 13.8724 12.0618 13.8527 11.9642C13.8331 11.8665 13.8309 11.7653 13.8463 11.6667C13.8618 11.568 13.8945 11.4739 13.9426 11.3898C14.3203 10.6879 14.5092 9.90694 14.5092 9.03002C14.5092 8.1531 14.3203 7.37317 13.9426 6.67123C13.8514 6.50147 13.8234 6.29766 13.8648 6.10456C13.9062 5.91145 14.0135 5.74385 14.1632 5.64032Z" fill="#261551"/>
</svg>
