<svg width="17" height="18" viewBox="0 0 17 18" fill="none" xmlns="http://www.w3.org/2000/svg">
<path d="M11.05 1.25008V16.746C11.05 17.825 9.96709 18.397 9.28199 17.68L5.4638 13.686C5.34711 13.5642 5.1965 13.497 5.0405 13.497H1.9125C1.66135 13.497 1.41265 13.4388 1.18062 13.3258C0.948582 13.2127 0.73775 13.047 0.560158 12.838C0.382566 12.6291 0.241692 12.3811 0.14558 12.1081C0.0494683 11.8351 0 11.5425 0 11.247V6.74906C0.000225368 6.1525 0.20182 5.58046 0.560458 5.15872C0.919097 4.73698 1.40542 4.50007 1.9125 4.50007H5.0405C5.19661 4.49985 5.34723 4.43224 5.4638 4.31007L9.28114 0.317086C9.96709 -0.399911 11.05 0.172087 11.05 1.25008ZM14.4432 2.89807C14.579 2.77968 14.7493 2.7296 14.9165 2.75886C15.0837 2.78811 15.2342 2.8943 15.3348 3.05407C16.4189 4.77427 17.0028 6.85968 17 9.00105C17.0023 11.1422 16.4181 13.2272 15.334 14.947C15.2323 15.1034 15.0824 15.2065 14.9166 15.234C14.7509 15.2614 14.5826 15.2111 14.4481 15.0939C14.3136 14.9766 14.2237 14.8019 14.1978 14.6073C14.172 14.4127 14.2121 14.214 14.3097 14.054C15.2311 12.5926 15.7274 10.8206 15.725 9.00105C15.7276 7.18116 15.2313 5.40879 14.3097 3.94707C14.2598 3.86785 14.2237 3.77783 14.2034 3.68216C14.1831 3.58649 14.179 3.48704 14.1914 3.38951C14.2038 3.29199 14.2324 3.19829 14.2756 3.11379C14.3188 3.02929 14.3758 2.95665 14.4432 2.89807ZM12.8715 5.37006C12.9452 5.3231 13.0259 5.29365 13.1092 5.28341C13.1925 5.27316 13.2767 5.28233 13.3569 5.31037C13.4372 5.33842 13.512 5.38479 13.5771 5.44685C13.6421 5.50891 13.6961 5.58544 13.736 5.67206C14.1916 6.66206 14.45 7.79706 14.45 9.00105C14.4504 10.1629 14.2051 11.3066 13.736 12.329C13.6961 12.4157 13.6422 12.4923 13.5772 12.5544C13.5122 12.6166 13.4374 12.663 13.3571 12.6912C13.2768 12.7193 13.1926 12.7286 13.1093 12.7184C13.026 12.7083 12.9452 12.6789 12.8715 12.632C12.7979 12.5852 12.7328 12.5217 12.68 12.4452C12.6271 12.3687 12.5876 12.2807 12.5637 12.1863C12.5398 12.0919 12.5319 11.9928 12.5406 11.8948C12.5492 11.7968 12.5741 11.7017 12.614 11.615C12.9824 10.812 13.1752 9.91364 13.175 9.00105C13.175 8.05305 12.971 7.16306 12.614 6.38606C12.5337 6.21113 12.5157 6.00586 12.564 5.81535C12.6123 5.62483 12.7229 5.46467 12.8715 5.37006Z" fill="#261551"/>
</svg>
