<svg width="404" height="264" viewBox="0 0 404 264" fill="none" xmlns="http://www.w3.org/2000/svg">
<path d="M103.941 20.4269C103.941 9.58729 112.722 0.800049 123.553 0.800049C134.384 0.800049 143.165 9.5873 143.165 20.4269V216.696C143.165 227.535 134.384 236.322 123.553 236.322C112.722 236.322 103.941 227.535 103.941 216.696V20.4269Z" fill="#261551"/>
<path d="M260.835 20.4269C260.835 9.58729 269.615 0.800049 280.447 0.800049C291.278 0.800049 300.058 9.5873 300.058 20.4269V216.696C300.058 227.535 291.278 236.322 280.447 236.322C269.615 236.322 260.835 227.535 260.835 216.696V20.4269Z" fill="#261551"/>
<path d="M25.4951 91.0837C25.4951 80.244 34.2756 71.4568 45.1068 71.4568C55.938 71.4568 64.7184 80.244 64.7184 91.0837V146.039C64.7184 156.879 55.938 165.666 45.1068 165.666C34.2756 165.666 25.4951 156.879 25.4951 146.039V91.0837Z" fill="#261551"/>
<path d="M339.281 93.0463C339.281 82.2067 348.062 73.4194 358.893 73.4194C369.724 73.4194 378.505 82.2067 378.505 93.0463V144.076C378.505 154.916 369.724 163.703 358.893 163.703C348.062 163.703 339.281 154.916 339.281 144.076V93.0463Z" fill="#261551"/>
<path fill-rule="evenodd" clip-rule="evenodd" d="M64.7188 148.001V89.1208C64.7188 99.9605 73.4992 108.748 84.3304 108.748C95.1616 108.748 103.942 99.9605 103.942 89.1208V148.001C103.942 137.162 95.1616 128.375 84.3304 128.375C73.4992 128.375 64.7188 137.162 64.7188 148.001Z" fill="#261551"/>
<path fill-rule="evenodd" clip-rule="evenodd" d="M143.165 102.86V43.9792C143.165 54.8189 151.945 63.6061 162.777 63.6061C173.608 63.6061 182.388 54.8189 182.388 43.9792V102.86C182.388 92.0202 173.608 83.233 162.777 83.233C151.945 83.233 143.165 92.0202 143.165 102.86Z" fill="#261551"/>
<path fill-rule="evenodd" clip-rule="evenodd" d="M221.611 148.001V89.1208C221.611 99.9605 230.392 108.748 241.223 108.748C252.054 108.748 260.835 99.9605 260.835 89.1208V148.001C260.835 137.162 252.054 128.375 241.223 128.375C230.392 128.375 221.611 137.162 221.611 148.001Z" fill="#261551"/>
<path fill-rule="evenodd" clip-rule="evenodd" d="M300.059 148.001V89.1208C300.059 99.9605 308.839 108.748 319.67 108.748C330.501 108.748 339.282 99.9605 339.282 89.1208V148.001C339.282 137.162 330.501 128.375 319.67 128.375C308.839 128.375 300.059 137.162 300.059 148.001Z" fill="#261551"/>
<path d="M182.389 43.9792C182.389 33.1395 191.169 24.3523 202 24.3523C212.832 24.3523 221.612 33.1395 221.612 43.9792V161.74C221.612 172.58 212.832 181.367 202 181.367C191.169 181.367 182.389 172.58 182.389 161.74V43.9792Z" fill="#261551"/>
<path fill-rule="evenodd" clip-rule="evenodd" d="M0 93.0463C0 68.1152 20.195 47.9045 45.1068 47.9045C70.0186 47.9045 90.2136 68.1152 90.2136 93.0463V94.3548C90.2136 97.6067 87.5795 100.243 84.3301 100.243C81.0807 100.243 78.4466 97.6067 78.4466 94.3548V93.0463C78.4466 74.619 63.5199 59.6807 45.1068 59.6807C26.6937 59.6807 11.767 74.619 11.767 93.0463V114.636C11.767 117.888 9.13286 120.524 5.8835 120.524C2.63413 120.524 0 117.888 0 114.636V93.0463Z" fill="#261551"/>
<path fill-rule="evenodd" clip-rule="evenodd" d="M247.106 45.9418C247.106 21.0107 226.911 0.800049 202 0.800049C177.088 0.800049 156.893 21.0107 156.893 45.9418V47.2503C156.893 50.5022 159.527 53.1384 162.776 53.1384C166.026 53.1384 168.66 50.5022 168.66 47.2503V45.9418C168.66 27.5145 183.587 12.5762 202 12.5762C220.413 12.5762 235.339 27.5145 235.339 45.9418V94.0277C235.339 97.2795 237.974 99.9157 241.223 99.9157C244.472 99.9157 247.106 97.2795 247.106 94.0277V45.9418Z" fill="#261551"/>
<path fill-rule="evenodd" clip-rule="evenodd" d="M404 93.0463C404 68.1152 383.805 47.9045 358.893 47.9045C333.981 47.9045 313.786 68.1152 313.786 93.0463V94.3548C313.786 97.6067 316.421 100.243 319.67 100.243C322.919 100.243 325.553 97.6067 325.553 94.3548V93.0463C325.553 74.619 340.48 59.6807 358.893 59.6807C377.306 59.6807 392.233 74.619 392.233 93.0463V112.673C392.233 115.925 394.867 118.561 398.117 118.561C401.366 118.561 404 115.925 404 112.673V93.0463Z" fill="#261551"/>
<path fill-rule="evenodd" clip-rule="evenodd" d="M168.66 218.658C168.66 243.589 148.465 263.8 123.553 263.8C98.6416 263.8 78.4466 243.589 78.4466 218.658V144.076C78.4466 140.824 81.0807 138.188 84.3301 138.188C87.5794 138.188 90.2136 140.824 90.2136 144.076V218.658C90.2136 237.086 105.14 252.024 123.553 252.024C141.966 252.024 156.893 237.086 156.893 218.658V104.822C156.893 101.571 159.527 98.9344 162.777 98.9344C166.026 98.9344 168.66 101.571 168.66 104.822V218.658Z" fill="#261551"/>
<path fill-rule="evenodd" clip-rule="evenodd" d="M280.447 246.136C298.86 246.136 313.787 231.198 313.787 212.77V145.058C313.787 141.806 316.421 139.17 319.67 139.17C322.92 139.17 325.554 141.806 325.554 145.058V212.77C325.554 237.701 305.359 257.912 280.447 257.912C255.535 257.912 235.34 237.701 235.34 212.77V145.058C235.34 141.806 237.974 139.17 241.224 139.17C244.473 139.17 247.107 141.806 247.107 145.058V212.77C247.107 231.198 262.034 246.136 280.447 246.136Z" fill="#261551"/>
</svg>
