<svg width="177" height="26" viewBox="0 0 177 26" fill="none" xmlns="http://www.w3.org/2000/svg">
<path d="M9.51953 2.58811C9.51953 1.59614 10.3237 0.791992 11.3156 0.791992C12.3076 0.791992 13.1118 1.59614 13.1118 2.58811V20.5493C13.1118 21.5412 12.3076 22.3454 11.3156 22.3454C10.3237 22.3454 9.51953 21.5412 9.51953 20.5493V2.58811Z" fill="#261551"/>
<path d="M23.8887 2.58811C23.8887 1.59614 24.6928 0.791992 25.6848 0.791992C26.6768 0.791992 27.4809 1.59614 27.4809 2.58811V20.5493C27.4809 21.5412 26.6768 22.3454 25.6848 22.3454C24.6928 22.3454 23.8887 21.5412 23.8887 20.5493V2.58811Z" fill="#261551"/>
<path d="M2.33496 9.05393C2.33496 8.06196 3.13911 7.25781 4.13108 7.25781C5.12305 7.25781 5.92719 8.06196 5.92719 9.05393V14.0831C5.92719 15.075 5.12305 15.8792 4.13108 15.8792C3.13911 15.8792 2.33496 15.075 2.33496 14.0831V9.05393Z" fill="#261551"/>
<path d="M31.0732 9.23362C31.0732 8.24165 31.8774 7.4375 32.8694 7.4375C33.8613 7.4375 34.6655 8.24165 34.6655 9.23362V13.9035C34.6655 14.8955 33.8613 15.6996 32.8694 15.6996C31.8774 15.6996 31.0732 14.8955 31.0732 13.9035V9.23362Z" fill="#261551"/>
<path fill-rule="evenodd" clip-rule="evenodd" d="M5.92676 14.2629V8.87451C5.92676 9.86648 6.73091 10.6706 7.72287 10.6706C8.71484 10.6706 9.51899 9.86648 9.51899 8.87451V14.2629C9.51899 13.2709 8.71484 12.4667 7.72287 12.4667C6.73091 12.4667 5.92676 13.2709 5.92676 14.2629Z" fill="#261551"/>
<path fill-rule="evenodd" clip-rule="evenodd" d="M13.1113 10.132V4.74365C13.1113 5.73562 13.9155 6.53977 14.9074 6.53977C15.8994 6.53977 16.7036 5.73562 16.7036 4.74365V10.132C16.7036 9.14003 15.8994 8.33589 14.9074 8.33589C13.9155 8.33589 13.1113 9.14003 13.1113 10.132Z" fill="#261551"/>
<path fill-rule="evenodd" clip-rule="evenodd" d="M20.2959 14.2629V8.87451C20.2959 9.86648 21.1 10.6706 22.092 10.6706C23.084 10.6706 23.8881 9.86648 23.8881 8.87451V14.2629C23.8881 13.2709 23.084 12.4667 22.092 12.4667C21.1 12.4667 20.2959 13.2709 20.2959 14.2629Z" fill="#261551"/>
<path fill-rule="evenodd" clip-rule="evenodd" d="M27.4805 14.2629V8.87451C27.4805 9.86648 28.2846 10.6706 29.2766 10.6706C30.2686 10.6706 31.0727 9.86648 31.0727 8.87451V14.2629C31.0727 13.2709 30.2686 12.4667 29.2766 12.4667C28.2846 12.4667 27.4805 13.2709 27.4805 14.2629Z" fill="#261551"/>
<path d="M16.7041 4.74338C16.7041 3.75141 17.5083 2.94727 18.5002 2.94727C19.4922 2.94727 20.2963 3.75141 20.2963 4.74338V15.5201C20.2963 16.512 19.4922 17.3162 18.5002 17.3162C17.5083 17.3162 16.7041 16.512 16.7041 15.5201V4.74338Z" fill="#261551"/>
<path fill-rule="evenodd" clip-rule="evenodd" d="M0 9.23361C0 6.95208 1.84954 5.10254 4.13107 5.10254C6.41259 5.10254 8.26214 6.95208 8.26214 9.23361V9.35335C8.26214 9.65094 8.02089 9.89218 7.7233 9.89218C7.42571 9.89218 7.18447 9.65094 7.18447 9.35335V9.23361C7.18447 7.54726 5.81741 6.18021 4.13107 6.18021C2.44472 6.18021 1.07767 7.54726 1.07767 9.23361V11.2093C1.07767 11.5069 0.836425 11.7482 0.538835 11.7482C0.241245 11.7482 0 11.5069 0 11.2093V9.23361Z" fill="#261551"/>
<path fill-rule="evenodd" clip-rule="evenodd" d="M22.6309 4.92306C22.6309 2.64153 20.7813 0.791992 18.4998 0.791992C16.2183 0.791992 14.3687 2.64153 14.3687 4.92306V5.0428C14.3687 5.34039 14.61 5.58164 14.9076 5.58164C15.2051 5.58164 15.4464 5.34039 15.4464 5.0428V4.92306C15.4464 3.23671 16.8134 1.86966 18.4998 1.86966C20.1861 1.86966 21.5532 3.23672 21.5532 4.92306V9.32355C21.5532 9.62114 21.7944 9.86238 22.092 9.86238C22.3896 9.86238 22.6309 9.62114 22.6309 9.32355V4.92306Z" fill="#261551"/>
<path fill-rule="evenodd" clip-rule="evenodd" d="M37 9.23361C37 6.95208 35.1505 5.10254 32.8689 5.10254C30.5874 5.10254 28.7379 6.95208 28.7379 9.23361V9.35335C28.7379 9.65094 28.9791 9.89218 29.2767 9.89218C29.5743 9.89218 29.8155 9.65094 29.8155 9.35335V9.23361C29.8155 7.54726 31.1826 6.18021 32.8689 6.18021C34.5553 6.18021 35.9223 7.54726 35.9223 9.23361V11.0297C35.9223 11.3273 36.1636 11.5686 36.4612 11.5686C36.7588 11.5686 37 11.3273 37 11.0297V9.23361Z" fill="#261551"/>
<path fill-rule="evenodd" clip-rule="evenodd" d="M15.4463 20.7288C15.4463 23.0103 13.5967 24.8599 11.3152 24.8599C9.03369 24.8599 7.18415 23.0103 7.18415 20.7288V13.9036C7.18415 13.606 7.4254 13.3647 7.72299 13.3647C8.02058 13.3647 8.26182 13.606 8.26182 13.9036V20.7288C8.26182 22.4151 9.62888 23.7822 11.3152 23.7822C13.0016 23.7822 14.3686 22.4151 14.3686 20.7288V10.3113C14.3686 10.0137 14.6099 9.77248 14.9075 9.77248C15.205 9.77248 15.4463 10.0137 15.4463 10.3113V20.7288Z" fill="#261551"/>
<path fill-rule="evenodd" clip-rule="evenodd" d="M25.6844 23.2436C27.3707 23.2436 28.7378 21.8766 28.7378 20.1902V13.9936C28.7378 13.696 28.979 13.4548 29.2766 13.4548C29.5742 13.4548 29.8154 13.696 29.8154 13.9936V20.1902C29.8154 22.4717 27.9659 24.3213 25.6844 24.3213C23.4028 24.3213 21.5533 22.4717 21.5533 20.1902V13.9936C21.5533 13.696 21.7945 13.4548 22.0921 13.4548C22.3897 13.4548 22.631 13.696 22.631 13.9936V20.1902C22.631 21.8766 23.998 23.2436 25.6844 23.2436Z" fill="#261551"/>
<path d="M160.889 13.3358C160.953 12.2691 161.22 11.3838 161.689 10.6798C162.158 9.97581 162.756 9.41047 163.481 8.9838C164.206 8.55714 165.017 8.25847 165.913 8.0878C166.83 7.8958 167.748 7.7998 168.665 7.7998C169.497 7.7998 170.34 7.8638 171.193 7.9918C172.046 8.09847 172.825 8.32247 173.529 8.66381C174.233 9.00514 174.809 9.48514 175.257 10.1038C175.705 10.7011 175.929 11.5011 175.929 12.5038V21.1118C175.929 21.8585 175.972 22.5731 176.057 23.2558C176.142 23.9385 176.292 24.4505 176.505 24.7918H171.897C171.812 24.5358 171.737 24.2798 171.673 24.0238C171.63 23.7465 171.598 23.4691 171.577 23.1918C170.852 23.9385 169.998 24.4611 169.017 24.7598C168.036 25.0585 167.033 25.2078 166.009 25.2078C165.22 25.2078 164.484 25.1118 163.801 24.9198C163.118 24.7278 162.521 24.4291 162.009 24.0238C161.497 23.6185 161.092 23.1065 160.793 22.4878C160.516 21.8691 160.377 21.1331 160.377 20.2798C160.377 19.3411 160.537 18.5731 160.857 17.9758C161.198 17.3571 161.625 16.8665 162.137 16.5038C162.67 16.1411 163.268 15.8745 163.929 15.7038C164.612 15.5118 165.294 15.3625 165.977 15.2558C166.66 15.1491 167.332 15.0638 167.993 14.9998C168.654 14.9358 169.241 14.8398 169.753 14.7118C170.265 14.5838 170.67 14.4025 170.969 14.1678C171.268 13.9118 171.406 13.5491 171.385 13.0798C171.385 12.5891 171.3 12.2051 171.129 11.9278C170.98 11.6291 170.766 11.4051 170.489 11.2558C170.233 11.0851 169.924 10.9785 169.561 10.9358C169.22 10.8718 168.846 10.8398 168.441 10.8398C167.545 10.8398 166.841 11.0318 166.329 11.4158C165.817 11.7998 165.518 12.4398 165.433 13.3358H160.889ZM171.385 16.6958C171.193 16.8665 170.948 17.0051 170.649 17.1118C170.372 17.1971 170.062 17.2718 169.721 17.3358C169.401 17.3998 169.06 17.4531 168.697 17.4958C168.334 17.5385 167.972 17.5918 167.609 17.6558C167.268 17.7198 166.926 17.8051 166.585 17.9118C166.265 18.0185 165.977 18.1678 165.721 18.3598C165.486 18.5305 165.294 18.7545 165.145 19.0318C164.996 19.3091 164.921 19.6611 164.921 20.0878C164.921 20.4931 164.996 20.8345 165.145 21.1118C165.294 21.3891 165.497 21.6131 165.753 21.7838C166.009 21.9331 166.308 22.0398 166.649 22.1038C166.99 22.1678 167.342 22.1998 167.705 22.1998C168.601 22.1998 169.294 22.0505 169.785 21.7518C170.276 21.4531 170.638 21.1011 170.873 20.6958C171.108 20.2691 171.246 19.8425 171.289 19.4158C171.353 18.9891 171.385 18.6478 171.385 18.3918V16.6958Z" fill="black"/>
<path d="M158.782 5.68785H154.238V1.94385H158.782V5.68785ZM154.238 8.24785H158.782V24.7918H154.238V8.24785Z" fill="black"/>
<path d="M136.422 8.2478H140.742V10.5518H140.838C141.414 9.5918 142.161 8.89847 143.078 8.4718C143.995 8.0238 144.934 7.7998 145.894 7.7998C147.11 7.7998 148.102 7.97047 148.87 8.3118C149.659 8.6318 150.278 9.09047 150.726 9.68781C151.174 10.2638 151.483 10.9785 151.654 11.8318C151.846 12.6638 151.942 13.5918 151.942 14.6158V24.7918H147.398V15.4478C147.398 14.0825 147.185 13.0691 146.758 12.4078C146.331 11.7251 145.574 11.3838 144.486 11.3838C143.249 11.3838 142.353 11.7571 141.798 12.5038C141.243 13.2291 140.966 14.4345 140.966 16.1198V24.7918H136.422V8.2478Z" fill="black"/>
<path d="M122.171 16.5358C122.171 17.1971 122.235 17.8478 122.363 18.4878C122.491 19.1065 122.704 19.6718 123.003 20.1838C123.323 20.6745 123.739 21.0691 124.251 21.3678C124.763 21.6665 125.403 21.8158 126.171 21.8158C126.939 21.8158 127.579 21.6665 128.091 21.3678C128.624 21.0691 129.04 20.6745 129.339 20.1838C129.659 19.6718 129.883 19.1065 130.011 18.4878C130.139 17.8478 130.203 17.1971 130.203 16.5358C130.203 15.8745 130.139 15.2238 130.011 14.5838C129.883 13.9438 129.659 13.3785 129.339 12.8878C129.04 12.3971 128.624 12.0025 128.091 11.7038C127.579 11.3838 126.939 11.2238 126.171 11.2238C125.403 11.2238 124.763 11.3838 124.251 11.7038C123.739 12.0025 123.323 12.3971 123.003 12.8878C122.704 13.3785 122.491 13.9438 122.363 14.5838C122.235 15.2238 122.171 15.8745 122.171 16.5358ZM117.627 16.5358C117.627 15.2131 117.83 14.0185 118.235 12.9518C118.64 11.8638 119.216 10.9465 119.963 10.1998C120.71 9.4318 121.606 8.84514 122.651 8.4398C123.696 8.01314 124.87 7.7998 126.171 7.7998C127.472 7.7998 128.646 8.01314 129.691 8.4398C130.758 8.84514 131.664 9.4318 132.411 10.1998C133.158 10.9465 133.734 11.8638 134.139 12.9518C134.544 14.0185 134.747 15.2131 134.747 16.5358C134.747 17.8585 134.544 19.0531 134.139 20.1198C133.734 21.1865 133.158 22.1038 132.411 22.8718C131.664 23.6185 130.758 24.1945 129.691 24.5998C128.646 25.0051 127.472 25.2078 126.171 25.2078C124.87 25.2078 123.696 25.0051 122.651 24.5998C121.606 24.1945 120.71 23.6185 119.963 22.8718C119.216 22.1038 118.64 21.1865 118.235 20.1198C117.83 19.0531 117.627 17.8585 117.627 16.5358Z" fill="black"/>
<path d="M90.5469 8.2478H94.8349V10.4878H94.8989C95.4962 9.63447 96.2109 8.97314 97.0429 8.50381C97.8962 8.03447 98.8669 7.7998 99.9549 7.7998C101 7.7998 101.95 8.00247 102.803 8.4078C103.678 8.81314 104.339 9.5278 104.787 10.5518C105.278 9.82647 105.939 9.18647 106.771 8.63181C107.624 8.07714 108.627 7.7998 109.779 7.7998C110.654 7.7998 111.464 7.90647 112.211 8.1198C112.958 8.33314 113.598 8.67447 114.131 9.1438C114.664 9.61314 115.08 10.2318 115.379 10.9998C115.678 11.7465 115.827 12.6531 115.827 13.7198V24.7918H111.283V15.4158C111.283 14.8611 111.262 14.3385 111.219 13.8478C111.176 13.3571 111.059 12.9305 110.867 12.5678C110.675 12.2051 110.387 11.9171 110.003 11.7038C109.64 11.4905 109.139 11.3838 108.499 11.3838C107.859 11.3838 107.336 11.5118 106.931 11.7678C106.547 12.0025 106.238 12.3225 106.003 12.7278C105.79 13.1118 105.64 13.5598 105.555 14.0718C105.491 14.5625 105.459 15.0638 105.459 15.5758V24.7918H100.915V15.5118C100.915 15.0211 100.904 14.5411 100.883 14.0718C100.862 13.5811 100.766 13.1331 100.595 12.7278C100.446 12.3225 100.179 12.0025 99.7949 11.7678C99.4322 11.5118 98.8882 11.3838 98.1629 11.3838C97.9495 11.3838 97.6615 11.4371 97.2989 11.5438C96.9575 11.6291 96.6162 11.8105 96.2749 12.0878C95.9549 12.3438 95.6775 12.7278 95.4429 13.2398C95.2082 13.7305 95.0909 14.3811 95.0909 15.1918V24.7918H90.5469V8.2478Z" fill="black"/>
<path d="M79.2617 8.2478H83.5817V11.3198H83.6457C83.8591 10.8078 84.1471 10.3385 84.5097 9.9118C84.8724 9.4638 85.2884 9.09047 85.7577 8.79181C86.2271 8.4718 86.7284 8.22647 87.2617 8.05581C87.7951 7.88514 88.3497 7.7998 88.9257 7.7998C89.2244 7.7998 89.555 7.85314 89.9177 7.9598V12.1838C89.7044 12.1411 89.4484 12.1091 89.1497 12.0878C88.8511 12.0451 88.5631 12.0238 88.2857 12.0238C87.4537 12.0238 86.7497 12.1625 86.1737 12.4398C85.5977 12.7171 85.1284 13.1011 84.7657 13.5918C84.4244 14.0611 84.179 14.6158 84.0297 15.2558C83.8804 15.8958 83.8057 16.5891 83.8057 17.3358V24.7918H79.2617V8.2478Z" fill="black"/>
<path d="M73.3032 14.7438C73.0899 13.5918 72.7059 12.7171 72.1512 12.1198C71.6179 11.5225 70.7965 11.2238 69.6872 11.2238C68.9619 11.2238 68.3539 11.3518 67.8632 11.6078C67.3939 11.8425 67.0099 12.1411 66.7112 12.5038C66.4339 12.8665 66.2312 13.2505 66.1032 13.6558C65.9965 14.0611 65.9325 14.4238 65.9112 14.7438H73.3032ZM65.9112 17.6238C65.9752 19.0958 66.3485 20.1625 67.0312 20.8238C67.7139 21.4851 68.6952 21.8158 69.9752 21.8158C70.8925 21.8158 71.6819 21.5918 72.3432 21.1438C73.0045 20.6745 73.4099 20.1838 73.5592 19.6718H77.5592C76.9192 21.6558 75.9379 23.0745 74.6152 23.9278C73.2925 24.7811 71.6925 25.2078 69.8152 25.2078C68.5139 25.2078 67.3405 25.0051 66.2952 24.5998C65.2499 24.1731 64.3645 23.5758 63.6392 22.8078C62.9139 22.0398 62.3485 21.1225 61.9432 20.0558C61.5592 18.9891 61.3672 17.8158 61.3672 16.5358C61.3672 15.2985 61.5699 14.1465 61.9752 13.0798C62.3805 12.0131 62.9565 11.0958 63.7032 10.3278C64.4499 9.53847 65.3352 8.9198 66.3592 8.4718C67.4045 8.0238 68.5565 7.7998 69.8152 7.7998C71.2232 7.7998 72.4499 8.07714 73.4952 8.63181C74.5405 9.16514 75.3939 9.89047 76.0552 10.8078C76.7379 11.7251 77.2285 12.7705 77.5272 13.9438C77.8259 15.1171 77.9325 16.3438 77.8472 17.6238H65.9112Z" fill="black"/>
<path d="M40.208 1.94385H45.232V10.7118H54.48V1.94385H59.504V24.7918H54.48V14.9358H45.232V24.7918H40.208V1.94385Z" fill="black"/>
</svg>
