<svg width="58" height="58" viewBox="0 0 58 58" fill="none" xmlns="http://www.w3.org/2000/svg">
<rect width="58" height="58" rx="15" fill="#261551"/>
<path d="M19.7769 18.4853C19.7769 17.4665 20.6027 16.6406 21.6215 16.6406C22.6403 16.6406 23.4662 17.4665 23.4662 18.4853V36.9319C23.4662 37.9507 22.6403 38.7765 21.6215 38.7765C20.6027 38.7765 19.7769 37.9507 19.7769 36.9319V18.4853Z" fill="white"/>
<path d="M34.5342 18.4853C34.5342 17.4665 35.3601 16.6406 36.3788 16.6406C37.3976 16.6406 38.2235 17.4665 38.2235 18.4853V36.9319C38.2235 37.9507 37.3976 38.7765 36.3788 38.7765C35.3601 38.7765 34.5342 37.9507 34.5342 36.9319V18.4853Z" fill="white"/>
<path d="M12.3979 25.1259C12.3979 24.1071 13.2238 23.2812 14.2426 23.2812C15.2614 23.2812 16.0873 24.1071 16.0873 25.1259V30.291C16.0873 31.3097 15.2614 32.1356 14.2426 32.1356C13.2238 32.1356 12.3979 31.3097 12.3979 30.291V25.1259Z" fill="white"/>
<path d="M41.9126 25.3105C41.9126 24.2917 42.7385 23.4658 43.7573 23.4658C44.776 23.4658 45.6019 24.2917 45.6019 25.3105V30.1066C45.6019 31.1254 44.776 31.9513 43.7573 31.9513C42.7385 31.9513 41.9126 31.1254 41.9126 30.1066V25.3105Z" fill="white"/>
<path fill-rule="evenodd" clip-rule="evenodd" d="M16.0874 30.4754V24.9414C16.0874 25.9602 16.9133 26.7861 17.9321 26.7861C18.9508 26.7861 19.7767 25.9602 19.7767 24.9414V30.4754C19.7767 29.4566 18.9508 28.6307 17.9321 28.6307C16.9133 28.6307 16.0874 29.4566 16.0874 30.4754Z" fill="white"/>
<path fill-rule="evenodd" clip-rule="evenodd" d="M23.4658 26.2327V20.6987C23.4658 21.7175 24.2917 22.5434 25.3105 22.5434C26.3293 22.5434 27.1551 21.7175 27.1551 20.6987V26.2327C27.1551 25.2139 26.3293 24.3881 25.3105 24.3881C24.2917 24.3881 23.4658 25.2139 23.4658 26.2327Z" fill="white"/>
<path fill-rule="evenodd" clip-rule="evenodd" d="M30.8447 30.4754V24.9414C30.8447 25.9602 31.6706 26.7861 32.6894 26.7861C33.7082 26.7861 34.534 25.9602 34.534 24.9414V30.4754C34.534 29.4566 33.7082 28.6307 32.6894 28.6307C31.6706 28.6307 30.8447 29.4566 30.8447 30.4754Z" fill="white"/>
<path fill-rule="evenodd" clip-rule="evenodd" d="M38.2231 30.4754V24.9414C38.2231 25.9602 39.049 26.7861 40.0678 26.7861C41.0866 26.7861 41.9125 25.9602 41.9125 24.9414V30.4754C41.9125 29.4566 41.0866 28.6307 40.0678 28.6307C39.049 28.6307 38.2231 29.4566 38.2231 30.4754Z" fill="white"/>
<path d="M27.1553 20.6987C27.1553 19.6799 27.9812 18.854 28.9999 18.854C30.0187 18.854 30.8446 19.6799 30.8446 20.6987V31.7666C30.8446 32.7854 30.0187 33.6113 28.9999 33.6113C27.9812 33.6113 27.1553 32.7854 27.1553 31.7666V20.6987Z" fill="white"/>
<path fill-rule="evenodd" clip-rule="evenodd" d="M10 25.3106C10 22.9674 11.8995 21.0679 14.2427 21.0679C16.5859 21.0679 18.4854 22.9674 18.4854 25.3106V25.4336C18.4854 25.7392 18.2377 25.987 17.932 25.987C17.6264 25.987 17.3786 25.7392 17.3786 25.4336V25.3106C17.3786 23.5787 15.9746 22.1747 14.2427 22.1747C12.5108 22.1747 11.1068 23.5787 11.1068 25.3106V27.3397C11.1068 27.6453 10.859 27.8931 10.5534 27.8931C10.2478 27.8931 10 27.6453 10 27.3397V25.3106Z" fill="white"/>
<path fill-rule="evenodd" clip-rule="evenodd" d="M33.2427 20.8833C33.2427 18.5402 31.3431 16.6406 29 16.6406C26.6568 16.6406 24.7572 18.5402 24.7572 20.8833V21.0063C24.7572 21.312 25.005 21.5597 25.3106 21.5597C25.6163 21.5597 25.864 21.312 25.864 21.0063V20.8833C25.864 19.1514 27.268 17.7474 29 17.7474C30.7319 17.7474 32.1359 19.1514 32.1359 20.8833V25.4028C32.1359 25.7084 32.3836 25.9562 32.6893 25.9562C32.9949 25.9562 33.2427 25.7084 33.2427 25.4028V20.8833Z" fill="white"/>
<path fill-rule="evenodd" clip-rule="evenodd" d="M48 25.3106C48 22.9674 46.1005 21.0679 43.7573 21.0679C41.4141 21.0679 39.5146 22.9674 39.5146 25.3106V25.4336C39.5146 25.7392 39.7623 25.987 40.068 25.987C40.3736 25.987 40.6214 25.7392 40.6214 25.4336V25.3106C40.6214 23.5787 42.0254 22.1747 43.7573 22.1747C45.4892 22.1747 46.8932 23.5787 46.8932 25.3106V27.1553C46.8932 27.4609 47.141 27.7086 47.4466 27.7086C47.7522 27.7086 48 27.4609 48 27.1553V25.3106Z" fill="white"/>
<path fill-rule="evenodd" clip-rule="evenodd" d="M25.8643 37.1162C25.8643 39.4594 23.9647 41.3589 21.6215 41.3589C19.2784 41.3589 17.3788 39.4594 17.3788 37.1162V30.1065C17.3788 29.8008 17.6266 29.5531 17.9322 29.5531C18.2379 29.5531 18.4856 29.8008 18.4856 30.1065V37.1162C18.4856 38.8481 19.8896 40.2521 21.6215 40.2521C23.3535 40.2521 24.7575 38.8481 24.7575 37.1162V26.4171C24.7575 26.1115 25.0052 25.8637 25.3109 25.8637C25.6165 25.8637 25.8643 26.1115 25.8643 26.4171V37.1162Z" fill="white"/>
<path fill-rule="evenodd" clip-rule="evenodd" d="M36.3789 39.6989C38.1108 39.6989 39.5148 38.2949 39.5148 36.5629V30.1989C39.5148 29.8932 39.7626 29.6455 40.0682 29.6455C40.3738 29.6455 40.6216 29.8932 40.6216 30.1989V36.5629C40.6216 38.9061 38.7221 40.8057 36.3789 40.8057C34.0357 40.8057 32.1361 38.9061 32.1361 36.5629V30.1989C32.1361 29.8932 32.3839 29.6455 32.6895 29.6455C32.9952 29.6455 33.2429 29.8932 33.2429 30.1989V36.5629C33.2429 38.2949 34.6469 39.6989 36.3789 39.6989Z" fill="white"/>
</svg>
